<svg width="136" height="82" viewBox="0 0 136 82" fill="none" xmlns="http://www.w3.org/2000/svg">
<path fill-rule="evenodd" clip-rule="evenodd" d="M58.7 3.5V22.1H77.9V3.5H58.7ZM55.7 3C55.7 1.61929 56.8193 0.5 58.2 0.5H78.4C79.7807 0.5 80.9 1.61929 80.9 3V8.5H95.8C97.1807 8.5 98.3 9.61929 98.3 11V25.3895L111.539 30.7568C112.483 31.1393 113.1 32.0556 113.1 33.0736V78.5H134V81.5H5.5V78.5H25.5V33.0667C25.5 32.0574 26.1068 31.1471 27.0385 30.759L39.9 25.4V11C39.9 9.61929 41.0193 8.5 42.4 8.5H55.7V3ZM55.7 11.5H42.9V26.3749L44.6505 78.5H95.3V11.5H80.9V22.6C80.9 23.9807 79.7807 25.1 78.4 25.1H58.2C56.8193 25.1 55.7 23.9807 55.7 22.6V11.5ZM98.3 78.5H110.1V33.4105L98.3 28.6267V78.5ZM41.6488 78.5L39.9737 28.6193L28.5 33.4V78.5H41.6488Z" fill="#00D1B2"/>
<path d="M65 7.39999C65 6.84771 65.4477 6.39999 66 6.39999H70.4C70.9523 6.39999 71.4 6.84771 71.4 7.39999V18.2C71.4 18.7523 70.9523 19.2 70.4 19.2H66C65.4477 19.2 65 18.7523 65 18.2V7.39999Z" fill="#D10000"/>
<path d="M62.7998 16C62.2475 16 61.7998 15.5523 61.7998 15V10.6C61.7998 10.0477 62.2475 9.6 62.7998 9.6H73.5998C74.1521 9.6 74.5998 10.0477 74.5998 10.6V15C74.5998 15.5523 74.1521 16 73.5998 16H62.7998Z" fill="#D10000"/>
<path d="M47 28.6C47 28.0477 47.4477 27.6 48 27.6H58.8C59.3523 27.6 59.8 28.0477 59.8 28.6V34.6C59.8 35.1523 59.3523 35.6 58.8 35.6H48C47.4477 35.6 47 35.1523 47 34.6V28.6Z" fill="black" fill-opacity="0.75"/>
<path d="M79.7998 28.6C79.7998 28.0477 80.2475 27.6 80.7998 27.6H91.5998C92.1521 27.6 92.5998 28.0477 92.5998 28.6V34.6C92.5998 35.1523 92.1521 35.6 91.5998 35.6H80.7998C80.2475 35.6 79.7998 35.1523 79.7998 34.6V28.6Z" fill="black" fill-opacity="0.75"/>
<path d="M63.4004 28.6C63.4004 28.0477 63.8481 27.6 64.4004 27.6H75.2004C75.7527 27.6 76.2004 28.0477 76.2004 28.6V34.6C76.2004 35.1523 75.7527 35.6 75.2004 35.6H64.4004C63.8481 35.6 63.4004 35.1523 63.4004 34.6V28.6Z" fill="black" fill-opacity="0.75"/>
<path d="M47 38.2C47 37.6477 47.4477 37.2 48 37.2H58.8C59.3523 37.2 59.8 37.6477 59.8 38.2V44.2C59.8 44.7523 59.3523 45.2 58.8 45.2H48C47.4477 45.2 47 44.7523 47 44.2V38.2Z" fill="black" fill-opacity="0.75"/>
<path d="M79.7998 38.2C79.7998 37.6477 80.2475 37.2 80.7998 37.2H91.5998C92.1521 37.2 92.5998 37.6477 92.5998 38.2V44.2C92.5998 44.7523 92.1521 45.2 91.5998 45.2H80.7998C80.2475 45.2 79.7998 44.7523 79.7998 44.2V38.2Z" fill="black" fill-opacity="0.75"/>
<path d="M63.4004 38.2C63.4004 37.6477 63.8481 37.2 64.4004 37.2H75.2004C75.7527 37.2 76.2004 37.6477 76.2004 38.2V44.2C76.2004 44.7523 75.7527 45.2 75.2004 45.2H64.4004C63.8481 45.2 63.4004 44.7523 63.4004 44.2V38.2Z" fill="black" fill-opacity="0.75"/>
<path d="M47 47.8C47 47.2477 47.4477 46.8 48 46.8H58.8C59.3523 46.8 59.8 47.2477 59.8 47.8V53.8C59.8 54.3523 59.3523 54.8 58.8 54.8H48C47.4477 54.8 47 54.3523 47 53.8V47.8Z" fill="black" fill-opacity="0.75"/>
<path d="M79.7998 47.8C79.7998 47.2477 80.2475 46.8 80.7998 46.8H91.5998C92.1521 46.8 92.5998 47.2477 92.5998 47.8V53.8C92.5998 54.3523 92.1521 54.8 91.5998 54.8H80.7998C80.2475 54.8 79.7998 54.3523 79.7998 53.8V47.8Z" fill="black" fill-opacity="0.75"/>
<path d="M63.4004 47.8C63.4004 47.2477 63.8481 46.8 64.4004 46.8H75.2004C75.7527 46.8 76.2004 47.2477 76.2004 47.8V53.8C76.2004 54.3523 75.7527 54.8 75.2004 54.8H64.4004C63.8481 54.8 63.4004 54.3523 63.4004 53.8V47.8Z" fill="black" fill-opacity="0.75"/>
<path fill-rule="evenodd" clip-rule="evenodd" d="M62.4194 62.3V78.5H78.5911V62.3H62.4194ZM81.5911 78.5H83.9002V66.5667H81.5911V78.5ZM81.5911 63.5667V61.8C81.5911 60.4193 80.4718 59.3 79.0911 59.3H61.9194C60.5387 59.3 59.4194 60.4193 59.4194 61.8V63.5667H57.2002C55.8195 63.5667 54.7002 64.686 54.7002 66.0667V79C54.7002 80.3807 55.8195 81.5 57.2002 81.5H84.4002C85.7809 81.5 86.9002 80.3807 86.9002 79V66.0667C86.9002 64.686 85.7809 63.5667 84.4002 63.5667H81.5911ZM59.4194 66.5667H57.7002V78.5H59.4194V66.5667Z" fill="#00D1B2"/>
<path fill-rule="evenodd" clip-rule="evenodd" d="M69.5625 76.0889V65.0667H70.5625V76.0889H69.5625Z" fill="#00D1B2"/>
<path d="M68.2932 71.8222C68.2932 72.6077 67.765 73.2444 67.1134 73.2444C66.4618 73.2444 65.9336 72.6077 65.9336 71.8222C65.9336 71.0367 66.4618 70.4 67.1134 70.4C67.765 70.4 68.2932 71.0367 68.2932 71.8222Z" fill="#00D1B2"/>
<path d="M74.1926 71.8222C74.1926 72.6077 73.6644 73.2444 73.0128 73.2444C72.3612 73.2444 71.833 72.6077 71.833 71.8222C71.833 71.0367 72.3612 70.4 73.0128 70.4C73.6644 70.4 74.1926 71.0367 74.1926 71.8222Z" fill="#00D1B2"/>
<path fill-rule="evenodd" clip-rule="evenodd" d="M134 58.5V50.5C134 46.9101 131.09 44 127.5 44C123.91 44 121 46.9101 121 50.5V58.5C121 62.0899 123.91 65 127.5 65C131.09 65 134 62.0899 134 58.5ZM127.5 42C122.806 42 119 45.8056 119 50.5V58.5C119 63.1944 122.806 67 127.5 67C132.194 67 136 63.1944 136 58.5V50.5C136 45.8056 132.194 42 127.5 42Z" fill="#00D1B2"/>
<path fill-rule="evenodd" clip-rule="evenodd" d="M126.5 48.5H128.5V52.3897L129.642 50.4855L131.357 51.5145L128.5 56.277V80H126.5V60.8508L122.719 56.1247L124.28 54.8753L126.5 57.6492V48.5Z" fill="#00D1B2"/>
<path d="M30 56C30 62.0751 25.299 67 19.5 67C13.701 67 9 62.0751 9 56C9 49.9249 13.701 45 19.5 45C25.299 45 30 49.9249 30 56Z" fill="#00D1B2"/>
<path fill-rule="evenodd" clip-rule="evenodd" d="M20 56.5V78.5H19V56.5H20Z" fill="#00D1B2"/>
<path fill-rule="evenodd" clip-rule="evenodd" d="M12.5001 41V80H11.5001V50.9277L4.6123 42.4626L5.38797 41.8315L11.5001 49.3433V41H12.5001Z" fill="#00D1B2"/>
<path fill-rule="evenodd" clip-rule="evenodd" d="M17.1147 56.1665C18.8783 53.731 20 50.3166 20 46.5C20 42.6834 18.8783 39.269 17.1147 36.8335C15.3502 34.3968 12.9988 33 10.5 33C8.00118 33 5.64982 34.3968 3.88532 36.8335C2.12169 39.269 1 42.6834 1 46.5C1 50.3166 2.12169 53.731 3.88532 56.1665C5.64982 58.6032 8.00118 60 10.5 60C12.9988 60 15.3502 58.6032 17.1147 56.1665ZM10.5 61C16.299 61 21 54.5081 21 46.5C21 38.4919 16.299 32 10.5 32C4.70101 32 0 38.4919 0 46.5C0 54.5081 4.70101 61 10.5 61Z" fill="#00D1B2"/>
<path d="M122 45.5C121.833 44.1667 119.8 41 113 39L112 69C114 69.6667 119.3 66.1 120.5 62.5L119 58.5V52.5L119.5 49.5L122 45.5Z" fill="#00D1B2"/>
</svg>
