<?xml version="1.0" encoding="utf-8"?>
<!-- Generator: Adobe Illustrator 16.0.0, SVG Export Plug-In . SVG Version: 6.00 Build 0)  -->
<!DOCTYPE svg PUBLIC "-//W3C//DTD SVG 1.1//EN" "http://www.w3.org/Graphics/SVG/1.1/DTD/svg11.dtd">
<svg version="1.1" id="圖層_1" xmlns="http://www.w3.org/2000/svg" xmlns:xlink="http://www.w3.org/1999/xlink" x="0px" y="0px"
	 width="1280.012px" height="1080px" viewBox="-639.562 55.14 1280.012 1080" enable-background="new -639.562 55.14 1280.012 1080"
	 xml:space="preserve">
<g>
	
		<image display="none" overflow="visible" enable-background="new    " width="1594" height="1165" xlink:href="B0421349.png"  transform="matrix(0.4385 0 0 0.4385 -445.6519 364.0591)">
	</image>
</g>
<g>
	<g>
		
			<image display="none" overflow="visible" enable-background="new    " width="1594" height="1165" xlink:href="B042134B.png"  transform="matrix(0.9891 0 0 0.9891 -858.0454 45.8218)">
		</image>
		<g>
			<path fill="#61E3CF" d="M-485.142,928.127c-7.914,16.815,92.978,72.206,92.978,72.206c56.381,37.587,71.218,25.718,71.218,25.718
				c83.087-53.412,215.63-124.631,215.63-124.631c9.892-23.738,0-32.641,0-32.641V855.92l-372.902,58.359h-6.923V928.127z"/>
			<path fill="#A1EEE2" d="M-345.675,985.497c-6.923,18.794,0,34.62,0,34.62c12.859,5.935,231.457-129.575,231.457-129.575
				c15.827-11.87,8.902-34.621,8.902-34.621L-345.675,985.497z"/>
			<path fill="#DEF9F5" d="M-485.142,914.28c-9.892,13.848,0,24.729,0,24.729c57.369,41.542,139.467,81.107,139.467,81.107
				c-5.935-13.848,0-24.729,0-24.729c-9.891,4.945-33.63-12.859-33.63-12.859L-485.142,914.28z"/>
			<path fill="#62E3CF" d="M-164.07,902.607c-13.591,2.611-21.177,22.77-4.847,14.997
				C-164.841,915.655-152.606,900.413-164.07,902.607z"/>
			<path fill="#10BD81" d="M-485.142,905.378c-7.914,9.89,0,19.781,0,19.781l122.652,70.229
				c36.598,6.924,65.283-22.749,65.283-22.749l185.957-113.751c6.924-8.902-24.728-24.729-24.728-24.729l-94.956-59.348
				c-18.794-9.892-53.414,15.826-53.414,15.826L-485.142,905.378z"/>
			<path fill="#D6F8F3" d="M-246.762,784.705l112.761,65.281c9.892,13.847-7.913,19.783-7.913,19.783l-177.055,102.87
				c-13.848,6.923-22.75-5.937-22.75-5.937l-94.958-58.357c-7.912-12.858,2.968-17.804,2.968-17.804l172.109-99.903
				C-248.74,781.737-246.762,784.705-246.762,784.705z"/>
			<ellipse fill="#2BD9BF" cx="-279.898" cy="879.166" rx="63.799" ry="35.114"/>
			<ellipse fill="#61E3CF" cx="-281.381" cy="860.866" rx="63.304" ry="40.554"/>
			<path fill="#FEFEFE" d="M-300.175,839.106c3.947,0.078,9.952,2.986,11.188,3.433c5.282,1.879,10.504,5.034,16.054,4.272
				c3.62-0.495,6.766-2.611,9.911-4.471c3.145-1.859,6.677-3.552,10.297-3.077c3.62,0.476,7.023,4.025,6.023,7.538
				c-0.702,2.442-3.125,3.926-4.648,5.964c-1.979,2.651-2.344,6.409-0.901,9.387c1.86,3.848,6.341,6.271,7.152,10.467
				c0.653,3.391-1.603,6.942-4.768,8.347s-6.944,0.892-9.99-0.742c-5.589-2.985-9.299-9.476-15.54-10.604
				c-7.428-1.344-13.64,5.55-20.871,7.726c-4.599,1.386-9.772,0.742-13.887-1.73c-2.542-1.523-4.866-4.362-4.006-7.202
				c1.583-5.192,11.414-4.293,12.136-9.673c0.357-2.66-2.502-4.204-4.559-5.926C-322.925,839.106-312.084,838.869-300.175,839.106z"
				/>
		</g>
		<g>
			<path fill="#2BD9BF" d="M-17.609,393.304c-16.113-9.238-21.78-28.498-22.236-46.016c-0.574-22.274,2.028-37.389-9.209-58.378
				c-12.997-24.283-33.314-22.652-50.328-40.316c-25.716-26.707-40.554-41.545-40.554-41.545
				c-24.728,84.077-25.718,107.817,0,127.599c25.717,19.783,45.5,87.044,45.5,87.044l57.37,68.25
				C-37.066,489.942-17.609,393.314-17.609,393.304z"/>
			<path fill="#61E3CF" d="M-225.99,389.049c116.717-6.922,194.414,73.641,194.414,73.641l-29.229,69.784
				c-8.705-13.056-16.559-27.023-27.458-38.448c-10.979-11.512-23.986-11.522-37.429-17.902
				c-14.58-6.924-22.226-20.386-30.307-33.739C-171.845,416.192-201.331,405.757-225.99,389.049z"/>
			<g>
				<path fill="#94ECDF" d="M-136.187,218.91c-0.554,5.54-0.357,10.87,0.554,16.034c0.91,5.162,2.462,10.148,4.401,15.015
					c1.949,4.867,4.283,9.604,6.815,14.293c2.592,4.659,5.282,9.317,7.894,14.086c2.631,4.747,5.193,9.692,7.784,14.599
					c2.571,4.926,5.232,9.783,8.11,14.501c2.879,4.718,5.956,9.309,9.1,13.857c3.186,4.521,6.47,9.003,9.803,13.453
					c6.638,8.94,13.017,18.131,18.378,27.963l2.086,3.64l1.979,3.709c1.305,2.483,2.631,4.965,3.897,7.468
					c1.207,2.543,2.363,5.114,3.521,7.676c0.574,1.285,1.157,2.572,1.671,3.878c0.495,1.314,1.029,2.631,1.503,3.956
					c4.066,10.523,6.855,21.582,8.655,32.73c0.396,2.809,0.712,5.618,1.049,8.408c0.316,2.799,0.336,5.647,0.455,8.457
					c0.05,1.403,0.119,2.809,0.129,4.214c0,1.403-0.119,2.819-0.179,4.223c-0.167,2.81-0.355,5.609-0.632,8.389l-1.088,0.039
					c-0.682-2.72-1.276-5.432-1.85-8.12c-0.287-1.346-0.515-2.69-0.851-4.026c-0.376-1.326-0.692-2.661-1.038-3.986l-1.02-3.967
					c-0.356-1.316-0.564-2.65-1.008-3.946c-0.792-2.603-1.603-5.192-2.345-7.795c-3.294-10.316-6.854-20.464-11.098-30.405
					c-0.525-1.246-0.99-2.512-1.484-3.758c-0.484-1.257-1.098-2.474-1.603-3.73c-1.058-2.492-2.117-4.975-3.126-7.487l-3.323-7.439
					l-1.651-3.688l-1.771-3.68l-14.343-29.604c-4.886-9.892-10.355-19.505-16.755-28.497c-3.176-4.511-6.647-8.832-10.178-13.105
					c-3.512-4.293-7.141-8.487-10.436-13.058c-3.304-4.539-6.28-9.365-8.823-14.491c-2.551-5.112-4.728-10.474-6.271-16.092
					c-1.533-5.599-2.414-11.475-2.186-17.34c0.217-5.847,1.573-11.661,4.223-16.697L-136.187,218.91z"/>
			</g>
			<g>
				<path fill="#94ECDF" d="M-210.115,394.995c4.342,0.149,8.656,0.534,12.938,1.019c4.292,0.466,8.566,1.108,12.829,1.84
					c2.127,0.377,4.253,0.792,6.37,1.218c2.117,0.476,4.234,0.909,6.34,1.435c2.106,0.533,4.204,1.058,6.291,1.67
					c2.077,0.643,4.154,1.287,6.192,2.049c8.19,2.996,15.955,7.032,23.709,10.851c7.754,3.837,15.43,7.804,22.928,12.325
					c3.719,2.294,7.359,4.737,10.811,7.418c3.462,2.67,6.756,5.539,9.95,8.486c3.215,2.938,6.321,5.964,9.378,9.021
					c3.066,3.047,6.023,6.19,8.912,9.437c5.738,6.509,11.147,13.413,15.767,20.87c2.325,3.709,4.441,7.565,6.241,11.554
					c1.82,3.976,3.363,8.08,4.481,12.294l-0.643,0.268c-4.411-7.428-9.189-14.401-14.53-20.96c-1.316-1.652-2.67-3.273-4.046-4.877
					c-1.345-1.622-2.75-3.214-4.145-4.797c-2.829-3.146-5.698-6.271-8.596-9.378c-5.806-6.201-11.514-12.62-17.379-18.732
					c-2.948-3.058-5.964-6.024-9.011-8.963c-3.066-2.917-6.123-5.855-9.396-8.555c-6.529-5.411-13.808-10.03-21.653-13.384
					c-7.843-3.402-16.241-5.291-24.47-7.358c-2.058-0.525-4.125-1.019-6.173-1.593c-2.057-0.545-4.104-1.088-6.151-1.682
					l-12.345-3.354c-4.124-1.118-8.258-2.256-12.383-3.491c-4.134-1.197-8.26-2.474-12.345-3.958L-210.115,394.995z"/>
			</g>
		</g>
		<g>
			<g>
				<path fill="#0FBD80" d="M-297.326,677.689c-1,0.594-1.77,1.396-2.275,2.414c-5.608,11.543,15.045,25.884,22.553,30.258
					c146.292,85.094,292.585,170.189,438.877,255.295c8.873,5.162,18.171,10.454,28.428,11.097
					c27.251,1.683,55.847-23.689,78.33-36.646c36.904-21.276,73.809-42.552,110.704-63.827
					c14.719-8.488,29.437-16.975,44.155-25.461c7.201-4.156,14.668-8.548,19.199-15.521c4.541-6.963,5.074-17.289-1.09-22.877
					c-232.672-43.195-465.346-86.393-698.03-129.588C-265.15,681.211-289.018,672.712-297.326,677.689z"/>
				<path fill="#A1EEE2" d="M-40.419,522.979c-2.79-0.752-5.647-1.216-8.566-1.267c-10.534-0.177-20.317,5.064-29.506,10.227
					c-39.368,22.129-78.033,45.491-115.926,70.042c-13.878,8.98-109.389,62.889-102.791,77.874c1.781,4.045,6.054,6.707,9.891,8.901
					c155.769,88.904,311.894,177.322,468.255,265.177c5.034,2.83,10.406,5.747,16.172,5.539c5.282-0.188,10.069-2.957,14.609-5.657
					c79.467-47.201,158.944-94.393,238.412-141.594c-21.998-23.354-49.587-40.575-77.005-57.252
					c-129.25-78.636-262.041-151.247-394.881-223.663C-27.729,528.053-33.911,524.73-40.419,522.979z"/>
			</g>
			<g>
				<path fill="#61E3CF" d="M-44.87,578.618l-15.153-7.291c-5.144-2.471-7.339-8.713-4.857-13.857l0,0
					c2.473-5.144,8.714-7.338,13.857-4.856l15.154,7.289c5.143,2.474,7.339,8.716,4.856,13.86l0,0
					C-33.485,578.905-39.717,581.09-44.87,578.618z"/>
				<path fill="#61E3CF" d="M-67.62,594.631l-14.561-8.407c-4.946-2.857-6.657-9.238-3.798-14.184l0,0
					c2.859-4.945,9.238-6.658,14.184-3.8l14.561,8.408c4.946,2.858,6.657,9.238,3.798,14.185l0,0
					C-56.284,595.779-62.675,597.491-67.62,594.631z"/>
				<path fill="#61E3CF" d="M-102.487,615.571l-12.958-10.712c-4.401-3.64-5.025-10.218-1.384-14.619l0,0
					c3.639-4.401,10.218-5.025,14.619-1.385l12.958,10.713c4.402,3.64,5.025,10.218,1.385,14.62l0,0
					C-91.507,618.587-98.085,619.212-102.487,615.571z"/>
				<path fill="#61E3CF" d="M-6.294,601.556l-14.56-8.408c-4.945-2.858-6.657-9.238-3.799-14.184l0,0
					c2.859-4.946,9.24-6.657,14.186-3.799l14.559,8.407c4.946,2.859,6.657,9.238,3.798,14.184l0,0
					C5.042,602.704-1.348,604.415-6.294,601.556z"/>
				<path fill="#61E3CF" d="M38.217,626.285l-14.56-8.409c-4.946-2.858-6.657-9.238-3.799-14.185l0,0
					c2.859-4.944,9.238-6.655,14.184-3.797l14.561,8.408c4.946,2.858,6.657,9.238,3.798,14.184l0,0
					C49.553,627.432,43.163,629.143,38.217,626.285z"/>
				<path fill="#61E3CF" d="M84.706,652.99l-14.56-8.407c-4.946-2.859-6.657-9.237-3.799-14.183l0,0
					c2.859-4.946,9.239-6.659,14.185-3.8l14.56,8.408c4.946,2.858,6.657,9.238,3.798,14.184l0,0
					C96.042,654.138,89.652,655.85,84.706,652.99z"/>
				<path fill="#61E3CF" d="M122.293,675.74l-14.56-8.406c-4.945-2.858-6.656-9.239-3.797-14.185l0,0
					c2.858-4.945,9.238-6.657,14.184-3.798l14.559,8.406c4.946,2.858,6.657,9.239,3.799,14.185l0,0
					C133.628,676.887,127.239,678.598,122.293,675.74z"/>
				<path fill="#61E3CF" d="M71.848,675.74l-14.56-8.406c-4.946-2.858-6.657-9.239-3.798-14.185l0,0
					c2.858-4.945,9.238-6.657,14.184-3.798l14.56,8.406c4.945,2.858,6.657,9.239,3.799,14.185l0,0
					C83.183,676.887,76.793,678.598,71.848,675.74z"/>
				<path fill="#61E3CF" d="M52.065,695.524l-14.56-8.408c-4.946-2.858-6.657-9.238-3.799-14.184l0,0
					c2.859-4.946,9.238-6.658,14.184-3.799l14.561,8.407c4.946,2.858,6.657,9.238,3.798,14.184l0,0
					C63.401,696.67,57.011,698.382,52.065,695.524z"/>
				<path fill="#61E3CF" d="M50.384,724.307l-19.585-11.305c-4.946-2.86-6.657-9.241-3.798-14.187l0,0
					c2.858-4.944,9.238-6.655,14.184-3.797l19.584,11.306c4.945,2.857,6.657,9.238,3.799,14.184l0,0
					C61.709,725.445,55.329,727.156,50.384,724.307z"/>
				<path fill="#61E3CF" d="M156.913,695.524l-14.559-8.408c-4.946-2.858-6.657-9.238-3.799-14.184l0,0
					c2.858-4.946,9.238-6.658,14.185-3.799l14.56,8.407c4.945,2.858,6.656,9.238,3.797,14.184l0,0
					C168.249,696.67,161.858,698.382,156.913,695.524z"/>
				<path fill="#61E3CF" d="M198.457,719.262l-14.56-8.408c-4.946-2.858-6.657-9.238-3.799-14.184l0,0
					c2.859-4.946,9.24-6.657,14.184-3.799l14.561,8.408c4.946,2.858,6.657,9.238,3.798,14.184l0,0
					C209.792,720.41,203.402,722.121,198.457,719.262z"/>
				<path fill="#61E3CF" d="M243.323,745.948l-24.808-14.322c-4.946-2.858-6.656-9.238-3.798-14.184l0,0
					c2.858-4.946,9.239-6.657,14.184-3.798l24.808,14.321c4.946,2.858,6.657,9.24,3.798,14.185l0,0
					C254.659,747.095,248.269,748.807,243.323,745.948z"/>
				<path fill="#61E3CF" d="M110.424,698.491l-14.561-8.407c-4.945-2.86-6.656-9.238-3.798-14.184l0,0
					c2.858-4.946,9.239-6.658,14.184-3.8l14.561,8.408c4.946,2.858,6.657,9.238,3.798,14.184l0,0
					C121.759,699.638,115.37,701.35,110.424,698.491z"/>
				<path fill="#61E3CF" d="M149,721.24l-14.56-8.406c-4.946-2.858-6.657-9.239-3.798-14.185l0,0
					c2.858-4.945,9.238-6.657,14.184-3.797l14.56,8.405c4.946,2.858,6.657,9.238,3.799,14.185l0,0
					C160.335,722.387,153.945,724.098,149,721.24z"/>
				<path fill="#61E3CF" d="M198.051,750.311l-22.067-12.74c-4.946-2.859-6.657-9.238-3.798-14.184l0,0
					c2.858-4.946,9.239-6.657,14.184-3.799l22.068,12.74c4.946,2.858,6.657,9.238,3.798,14.185l0,0
					C209.387,751.448,202.997,753.16,198.051,750.311z"/>
				<path fill="#61E3CF" d="M93.608,721.24l-14.56-8.406c-4.945-2.858-6.657-9.239-3.799-14.185l0,0
					c2.859-4.945,9.24-6.657,14.186-3.797l14.559,8.405c4.946,2.858,6.657,9.238,3.798,14.185l0,0
					C104.944,722.387,98.554,724.098,93.608,721.24z"/>
				<path fill="#61E3CF" d="M87.674,747.947l-14.561-8.407c-4.945-2.858-6.656-9.238-3.798-14.185l0,0
					c2.859-4.945,9.239-6.656,14.185-3.798l14.56,8.406c4.946,2.859,6.657,9.241,3.798,14.186l0,0
					C99.009,749.094,92.62,750.805,87.674,747.947z"/>
				<path fill="#61E3CF" d="M131.195,743.001l-14.56-8.408c-4.945-2.858-6.657-9.238-3.797-14.184l0,0
					c2.858-4.946,9.238-6.657,14.184-3.799l14.56,8.407c4.946,2.86,6.657,9.238,3.798,14.187l0,0
					C142.531,744.149,136.141,745.86,131.195,743.001z"/>
				<path fill="#61E3CF" d="M338.092,800.292l-31.543-18.21c-4.945-2.858-6.657-9.239-3.799-14.185l0,0
					c2.859-4.945,9.238-6.657,14.185-3.797l31.544,18.209c4.945,2.857,6.657,9.238,3.798,14.184l0,0
					C349.428,801.439,343.038,803.151,338.092,800.292z"/>
				<path fill="#61E3CF" d="M131.977,773.705l-16.34-9.437c-4.946-2.858-6.657-9.239-3.798-14.185l0,0
					c2.858-4.945,9.238-6.656,14.184-3.798l16.34,9.436c4.946,2.859,6.657,9.238,3.798,14.186l0,0
					C143.313,774.851,136.933,776.563,131.977,773.705z"/>
				<path fill="#61E3CF" d="M102.55,790.628l-120.704-69.686c-4.946-2.856-6.657-9.238-3.798-14.183l1.256-2.177
					c2.859-4.945,9.238-6.656,14.185-3.798l120.704,69.685c4.946,2.858,6.657,9.238,3.798,14.183l-1.256,2.176
					C113.875,791.777,107.496,793.487,102.55,790.628z"/>
				<path fill="#61E3CF" d="M175.707,768.72l-14.56-8.409c-4.946-2.858-6.657-9.237-3.799-14.185l0,0
					c2.859-4.944,9.238-6.657,14.185-3.797l14.56,8.407c4.946,2.859,6.657,9.238,3.798,14.184l0,0
					C187.042,769.868,180.652,771.578,175.707,768.72z"/>
				<path fill="#61E3CF" d="M254.837,814.22l-14.561-8.408c-4.946-2.859-6.656-9.238-3.798-14.185l0,0
					c2.858-4.945,9.238-6.657,14.184-3.798l14.56,8.407c4.947,2.857,6.657,9.238,3.799,14.184l0,0
					C266.172,815.366,259.782,817.079,254.837,814.22z"/>
				<path fill="#61E3CF" d="M261.089,848.057l-66.312-38.279c-4.946-2.858-6.657-9.238-3.798-14.184l0,0
					c2.858-4.946,9.238-6.658,14.184-3.8l66.312,38.28c4.946,2.859,6.657,9.238,3.798,14.184l0,0
					C272.414,849.205,266.034,850.907,261.089,848.057z"/>
				<path fill="#61E3CF" d="M209.229,763.931l21.76,12.859c3.957,8.901-10.881,13.848-10.881,13.848
					c-13.847-4.946-14.836-8.901-14.836-8.901c-10.88-1.98-28.685,11.869-28.685,11.869c-10.88,6.923-19.783-7.914-19.783-7.914
					s40.554-20.771,41.544-21.761C199.337,762.943,209.229,763.931,209.229,763.931z"/>
				<path fill="#61E3CF" d="M213.185,757.996l17.804,9.892c16.816,3.958,38.577-12.858,38.577-12.858l-6.925-8.902h-31.652
					l-17.804,8.902V757.996z"/>
				<path fill="#61E3CF" d="M273.521,759.975l24.729,16.815l-12.859,12.859c-16.815,0.988-32.641-14.838-32.641-14.838
					C259.674,764.92,273.521,759.975,273.521,759.975z"/>
				<path fill="#61E3CF" d="M298.25,795.583c10.881-5.934,19.783,0,19.783,0c15.826,13.848,9.891,21.762,9.891,21.762
					c-19.782,17.805-50.445,8.901-50.445,8.901c-4.946-10.881,14.837-15.826,14.837-15.826
					C290.337,799.541,298.25,795.583,298.25,795.583z"/>
				<path fill="#61E3CF" d="M186.478,814.377l24.729,13.847c3.957,6.926-3.957,5.936-3.957,5.936l-27.696-13.848
					C178.565,813.388,186.478,814.377,186.478,814.377z"/>
				<path fill="#61E3CF" d="M136.032,800.529l24.729,13.849c3.956,6.923-3.957,5.935-3.957,5.935l-27.695-13.849
					C128.119,799.541,136.032,800.529,136.032,800.529z"/>
				<path fill="#61E3CF" d="M169.663,824.268l24.728,13.848c3.957,6.926-3.957,5.936-3.957,5.936l-27.696-13.847
					C161.75,823.279,169.663,824.268,169.663,824.268z"/>
				<path fill="#61E3CF" d="M210.217,844.051l24.729,13.847c3.957,6.925-3.957,5.935-3.957,5.935l-27.696-13.847
					C202.304,843.061,210.217,844.051,210.217,844.051z"/>
				<path fill="#61E3CF" d="M60.859,800.529c17.804,19.783-14.838,27.695-14.838,27.695C10.413,833.17,2.5,810.42,2.5,810.42
					L60.859,800.529z"/>
				<polygon fill="#61E3CF" points="165.707,789.65 125.152,824.268 108.336,824.268 173.619,768.877 				"/>
				<path fill="#61E3CF" d="M373.424,820.312c7.912,7.912,0,17.804,0,17.804l-96.935,61.327l-18.793,11.869
					c-36.598,18.794-84.077-4.946-84.077-4.946c-42.533-12.856-53.412-31.651-53.412-31.651l83.086,15.827l20.772,10.879
					L373.424,820.312z"/>
				<path fill="#61E3CF" d="M-207.196,684.801l123.641,72.207L104.38,655.126v7.419L-82.565,768.877l-124.631-75.174
					C-214.121,687.769-207.196,684.801-207.196,684.801z"/>
				<path fill="#61E3CF" d="M17.336,814.377c-8.902,3.955-22.75,19.782-22.75,19.782l-4.945,21.761
					c0,26.707-89.023,74.186-89.023,74.186c-24.728,32.642,58.359,68.25,58.359,68.25c81.109,13.847,110.783-51.436,110.783-51.436
					c26.706-51.434,71.217-64.293,71.217-64.293l-11.869-18.795L18.326,982.529h-59.348l-46.489-37.586l11.87-37.587l50.446-43.523
					v-19.781L2.5,810.42L17.336,814.377z"/>
				<g>
					<g>
						<path fill="#61E3CF" d="M119.236,877.86c-12.166,2.7-21.859,11.395-26.053,23.096c-0.643,1.801,2.226,2.571,2.859,0.791
							c3.848-10.742,12.868-18.556,23.986-21.028C121.887,880.313,121.097,877.455,119.236,877.86L119.236,877.86z"/>
					</g>
				</g>
				<g>
					<g>
						<path fill="#61E3CF" d="M99.385,894.468c-3.206-3.156-7.24-1.179-10.08,1.602c-5.163,5.043-9.169,11.898-13.511,17.665
							c-0.801,1.07,0.524,2.513,1.672,2.176c5.331-1.512,8.991-5.312,10.237-10.722c0.268-1.147-0.702-2.047-1.83-1.83
							c-11.444,2.314-20.594,10.258-24.728,21.139c-0.446,1.156,1.157,2.433,2.176,1.673c5.43-4.037,10.049-8.716,13.986-14.215
							c1.118-1.563-1.444-3.018-2.562-1.494c-7.754,10.555-14.936,21.476-21.543,32.779c-0.871,1.484,1.097,2.919,2.334,1.801
							c9.595-8.744,17.943-18.626,24.986-29.525c0.663-1.029-0.455-2.642-1.672-2.177c-5.875,2.226-11.444,4.976-16.765,8.318
							c0.602,0.782,1.197,1.553,1.8,2.336c3.263-2.859,6.528-5.708,9.792-8.566c-0.781-0.604-1.553-1.196-2.334-1.801
							c-8.833,16.865-21.711,30.922-34.679,44.688c-11.938,12.681-25.807,26.46-44.224,27.479c0.128,0.969,0.267,1.938,0.395,2.918
							c10.762-3.018,21.316-6.639,31.672-10.842c1.454-0.594,1.415-2.928-0.396-2.918c-6.736,0.05-12.631,2.552-17.329,7.38
							c-1.256,1.296,0.327,2.957,1.8,2.334c10.989-4.659,21.504-10.208,31.553-16.648c0.89-0.573,1.039-2.027,0-2.562
							c-7.804-4.035-15.757,3.235-21.593,7.755c-8.239,6.381-15.786,13.542-22.69,21.347c-1.286,1.454,0.623,3.273,2.097,2.097
							c18.576-14.818,37.073-29.733,55.49-44.748c4.481-3.65,8.952-7.31,13.423-10.979c3.917-3.216,8.447-6.261,11.781-10.109
							c3.828-4.42,5.004-11.425-0.584-14.946c-1.623-1.019-3.116,1.544-1.494,2.563c9.565,6.023-9.09,18.171-13.284,21.612
							c-7.449,6.104-14.917,12.196-22.395,18.269c-14.956,12.148-29.971,24.225-45.035,36.243c0.702,0.701,1.395,1.395,2.097,2.097
							c5.302-5.984,10.97-11.623,17.072-16.796c5.094-4.322,16.242-15.648,23.611-11.841c0-0.85,0-1.711,0-2.562
							c-10.049,6.441-20.563,11.988-31.553,16.648c0.604,0.781,1.197,1.552,1.8,2.334c4.144-4.262,9.297-6.47,15.222-6.509
							c-0.128-0.969-0.267-1.938-0.396-2.918c-10.356,4.214-20.91,7.824-31.672,10.842c-1.573,0.444-1.315,3.005,0.396,2.917
							c18.2-1.009,32.176-13.551,44.185-26.104c13.917-14.55,27.873-29.575,37.28-47.537c0.792-1.514-1.058-2.908-2.334-1.801
							c-3.264,2.858-6.528,5.709-9.792,8.566c-1.267,1.107,0.375,3.225,1.8,2.336c5.104-3.206,10.416-5.878,16.054-8.023
							c-0.554-0.722-1.118-1.453-1.671-2.177c-6.914,10.704-15.104,20.348-24.521,28.933c0.781,0.604,1.552,1.196,2.334,1.801
							c6.607-11.306,13.789-22.227,21.543-32.78c-0.851-0.494-1.71-1-2.562-1.493c-3.63,5.073-7.913,9.436-12.918,13.155
							c0.722,0.554,1.455,1.117,2.176,1.671c3.769-9.931,12.275-16.973,22.661-19.061c-0.602-0.612-1.216-1.216-1.83-1.83
							c-1.008,4.372-3.847,7.418-8.169,8.646c0.554,0.722,1.118,1.453,1.671,2.177c2.255-2.999,14.689-22.829,18.932-18.665
							C98.652,897.9,100.75,895.802,99.385,894.468L99.385,894.468z"/>
					</g>
				</g>
				<g>
					<g>
						<path fill="#61E3CF" d="M71.165,915.931c-2.176,3.699-4.362,7.409-6.538,11.107c-0.832,1.415,1.187,3.087,2.334,1.802
							c4.104-4.66,8.219-9.309,12.324-13.968c1.256-1.424-0.831-3.531-2.097-2.097c-4.105,4.66-8.22,9.308-12.325,13.966
							c0.781,0.604,1.553,1.198,2.334,1.801c2.176-3.698,4.362-7.408,6.538-11.106C74.697,915.783,72.135,914.291,71.165,915.931
							L71.165,915.931z"/>
					</g>
				</g>
			</g>
			<path fill="#FEFEFE" d="M-34.099,573.029l137.489,82.098L-80.587,757.996l-127.599-75.173
				C-204.229,660.073-34.099,573.029-34.099,573.029z"/>
			<g>
				<g>
					<g>
						<path fill="#CCF6F0" d="M-167.601,700.962c3.195-1.167,8.862,2.78,11.602,4.274c3.798,2.066,7.429,4.432,10.832,7.111
							c4.451,3.513,10.792-2.75,6.29-6.291c-4.886-3.848-9.979-7.289-15.579-10.029c-4.6-2.245-10.326-5.539-15.51-3.65
							C-175.316,694.317-173.012,702.922-167.601,700.962L-167.601,700.962z"/>
					</g>
				</g>
				<g>
					<g>
						<path fill="#CCF6F0" d="M-127.888,716.096c16.598,9.16,31.741,20.446,45.232,33.75c4.085,4.026,10.387-2.265,6.291-6.291
							c-14.005-13.817-29.813-25.638-47.043-35.144C-128.412,705.643-132.903,713.327-127.888,716.096L-127.888,716.096z"/>
					</g>
				</g>
				<g>
					<path fill="#CCF6F0" d="M-122.428,691.864c11.514,6.686,23.026,13.373,34.541,20.06c3.412,1.978,7.181,4.036,11.088,3.431"/>
				</g>
				<g>
					<g>
						<path fill="#CCF6F0" d="M-77.403,671.537c-5.262-3.264-10.514-6.529-15.776-9.802c-4.876-3.026-9.357,4.668-4.49,7.686
							c5.262,3.264,10.514,6.528,15.776,9.802C-77.017,682.258-72.546,674.553-77.403,671.537L-77.403,671.537z"/>
					</g>
				</g>
				<g>
					<g>
						<path fill="#CCF6F0" d="M-52.604,652.486c-6.746-4.897-14.274-8.428-22.325-10.574c-5.539-1.483-7.903,7.102-2.364,8.585
							c7.389,1.97,14.017,5.194,20.198,9.686C-52.457,663.544-48.005,655.819-52.604,652.486L-52.604,652.486z"/>
					</g>
				</g>
				<g>
					<g>
						<path fill="#CCF6F0" d="M10.126,639.805c4.48,6.261,11.038,7.389,16.943,11.632c3.047,2.187,5.668,4.857,8.814,6.925
							c3.739,2.453,7.833,4.293,11.879,6.142c6.894,3.146,12.937-7.083,5.994-10.247c-6.775-3.086-12.444-6.558-18.25-11.187
							c-2.324-1.851-4.728-3.373-7.418-4.649c-2.532-1.207-6.023-2.226-7.725-4.6C15.962,627.649,5.665,633.574,10.126,639.805
							L10.126,639.805z"/>
					</g>
				</g>
				<g>
					<g>
						<path fill="#CCF6F0" d="M67.951,638.392c-7.695-1.168-12.879-6.659-18.29-11.802c-5.756-5.471-11.771-10.573-19.535-12.85
							c-7.349-2.145-10.484,9.308-3.155,11.445c7.378,2.156,12.552,8.26,18.002,13.313c5.668,5.252,11.979,10.139,19.823,11.325
							C72.273,650.961,75.487,639.529,67.951,638.392L67.951,638.392z"/>
					</g>
				</g>
				<path fill="#CCF6F0" d="M-36.571,581.436l52.424,26.706l16.815,23.74L8.929,647.708c0,0-10.881-12.858-21.761-10.881
					c-10.88,1.978-11.87,14.837-11.87,14.837c-35.608,0.99-52.423-19.782-52.423-19.782c5.935,19.782-10.881,33.63-10.881,33.63
					c-14.837,17.806-29.673-5.935-34.619,4.946c-4.946,10.88,2.967,24.729-4.946,25.718c-7.914,0.988-27.696-9.891-27.696-9.891
					l-23.74-42.534c6.925-11.869,45.5-30.663,45.5-30.663L-36.571,581.436z"/>
				<g>
					<g>
						<path fill="#CCF6F0" d="M-74.356,668.965c9.07,2.582,18.843,5.262,25.648,12.195c3.413,3.473,5.975,7.656,9.773,10.772
							c3.66,3.006,7.813,5.024,12.394,6.24c5.539,1.465,7.914-7.111,2.364-8.585c-10.554-2.799-14.392-12.354-22.592-18.478
							c-7.408-5.529-16.449-8.228-25.223-10.732C-77.511,658.807-79.865,667.393-74.356,668.965L-74.356,668.965z"/>
					</g>
				</g>
				<g>
					<g>
						<path fill="#CCF6F0" d="M-104.692,697.938c12.027,10.335,28.408,13.332,40.327,23.679c4.313,3.738,10.633-2.532,6.291-6.291
							c-11.998-10.406-28.358-13.393-40.327-23.68C-102.724,687.926-109.045,694.188-104.692,697.938L-104.692,697.938z"/>
					</g>
				</g>
				<g>
					<g>
						<path fill="#CCF6F0" d="M-27.253,651.972c4.401-1.246,6.845-4.313,9.476-7.835c2.086-2.788,3.65-4.718,7.497-4.164
							c3.225,0.465,6.499,1.711,9.634,2.591c5.53,1.553,11.416,3.778,16.945,1.06c4.698-2.306,7.438-6.974,9.654-11.513
							c2.502-5.134-5.173-9.645-7.686-4.491c-1.029,2.116-2.078,4.499-3.68,6.24c-2.533,2.751-5.084,2.217-8.417,1.365
							c-5.42-1.374-10.811-3.6-16.39-4.174c-4.392-0.445-8.388,0.822-11.543,3.926c-2.512,2.484-4.263,7.39-7.844,8.408
							C-35.126,644.939-32.783,653.525-27.253,651.972L-27.253,651.972z"/>
					</g>
				</g>
				<g>
					<g>
						<path fill="#CCF6F0" d="M-73.664,671.466c6.488,1.168,11.642,4.206,15.826,9.309c0.653-2.481,1.306-4.956,1.968-7.438
							c-4.965,1.503-9.081-2.324-12.769-5.123c-3.215-2.443-6.361-4.462-10.277-5.578c-3.818-1.089-6.865,3.185-5.025,6.537
							c3.145,5.717,7.784,10.158,13.729,12.88c1.147-2.712,2.285-5.421,3.432-8.133c-4.53-1.196-8.654-2.927-12.67-5.34
							c-4.926-2.958-9.406,4.738-4.49,7.686c4.639,2.788,9.564,4.866,14.797,6.241c4.698,1.236,8.15-5.965,3.432-8.132
							c-4.649-2.135-8.071-5.202-10.534-9.683c-1.672,2.176-3.354,4.361-5.025,6.538c5.401,1.534,9.011,6.015,13.789,8.685
							c4.391,2.452,9.12,3.491,13.986,2.018c3.422-1.039,4.065-4.867,1.968-7.438c-5.025-6.132-11.949-10.187-19.753-11.593
							C-76.898,661.873-79.302,670.458-73.664,671.466L-73.664,671.466z"/>
					</g>
				</g>
				<g>
					<g>
						<path fill="#CCF6F0" d="M39.572,642.1c-1.246-3.868-2.689-7.655-4.362-11.354c-1.127-2.483-2.294-6.123-4.936-7.488
							c-7.181-3.719-9.397,7.002-8.913,11.681c2.918-0.395,5.826-0.791,8.745-1.186c-0.812-4.798,1.296-9.645-1.355-14.175
							c-2.819-4.808-8.961-4.995-11.9-9.833c-2.967-4.886-10.672-0.414-7.685,4.491c2.799,4.6,6.211,6.063,10.484,8.862
							c3.214,2.108,1.256,9.358,1.87,13.008c0.831,4.896,9.258,3.818,8.743-1.188c-0.188-1.778-0.366-3.64,0.614-5.252
							c-0.891,0.683-1.771,1.367-2.661,2.049c0.336-0.11,0.663-0.218,0.999-0.337c-1.147-0.148-2.285-0.296-3.432-0.445
							c-1.375-0.948-0.267,0,0.158,0.989c0.653,1.505,1.444,2.957,2.087,4.472c1.138,2.64,2.087,5.341,2.968,8.07
							C32.737,649.894,41.333,647.571,39.572,642.1L39.572,642.1z"/>
					</g>
				</g>
				<g>
					<g>
						<path fill="#CCF6F0" d="M-7.491,676.799c1.969,0.445,3.947,0.9,5.916,1.345c3.629,0.831,7.171-3.097,5.024-6.537
							c-1.237-1.988-2.473-3.968-3.709-5.956c-1.672,2.176-3.354,4.363-5.025,6.539c4.53,1.009,8.972,2.294,13.333,3.877
							c2.087,0.75,4.451-0.683,5.252-2.581c0.92-2.187-0.02-4.214-1.82-5.56c-0.91-0.683-1.829-1.365-2.74-2.058
							c-1.938-1.454-4.956-0.297-6.093,1.592c-1.355,2.256-0.317,4.661,1.592,6.094c0.91,0.684,1.83,1.366,2.74,2.059
							c1.147-2.712,2.285-5.422,3.433-8.132c-4.363-1.582-8.804-2.868-13.334-3.877c-3.63-0.802-7.171,3.086-5.025,6.537
							c1.237,1.989,2.473,3.967,3.709,5.955c1.671-2.177,3.354-4.362,5.024-6.537c-1.968-0.447-3.947-0.901-5.915-1.346
							C-10.695,666.946-13.08,675.523-7.491,676.799L-7.491,676.799z"/>
					</g>
				</g>
			</g>
			<g>
				<path fill="#F6F6F7" d="M262.641,732.279c18.794-0.988,0,14.837,0,14.837c-29.674-0.989-43.522,6.925-43.522,6.925
					c-19.782,15.827-20.771,15.827-20.771,15.827c-7.914,1.978-14.837-2.97-14.837-2.97c-4.946-9.89,30.662-28.684,30.662-28.684
					C238.902,730.301,262.641,732.279,262.641,732.279z"/>
				<path fill="#F6F6F7" d="M351.663,777.779c33.63,21.762,27.697,36.599,27.697,36.599c-19.784,33.631-56.381,41.543-56.381,41.543
					l-5.935-7.912l37.586-31.653c6.925-6.924-2.967-18.794-2.967-18.794V777.779z"/>
				<path fill="#F6F6F7" d="M16.348,808.443c24.728,11.869,47.478-7.914,47.478-7.914c12.858-21.76-17.805-30.661-17.805-30.661
					c-42.532-5.937-49.456,16.814-49.456,16.814C-0.468,797.561,16.348,808.443,16.348,808.443z"/>
				<path fill="#11BD81" d="M266.449,732.349c34.769,8.833,36.746,22.68,36.746,22.68c-3.956,19.783-18.793,8.902-18.793,8.902
					c-19.783-12.857-26.707-19.782-26.707-19.782L266.449,732.349z"/>
				<path fill="#11BD81" d="M356.608,782.724c-12.857-12.856-31.651-15.826-31.651-15.826c-14.838,0.989-11.87,12.858-11.87,12.858
					c26.707,17.805,33.631,17.805,33.631,17.805C361.555,797.561,356.608,782.724,356.608,782.724z"/>
				<path fill="#11BD81" d="M309.131,846.029c11.869-1.978,13.848,9.892,13.848,9.892c-24.729,26.707-79.13,48.468-79.13,48.468
					c-32.642,9.892-52.425-7.913-52.425-7.913c-25.717,0-64.293-19.783-64.293-19.783c-39.565,13.85-70.229,62.317-70.229,62.317
					c-37.587,44.51-63.305,43.52-63.305,43.52c-44.511-0.987-63.304-11.869-63.304-11.869c-39.565-28.685-35.609-44.51-35.609-44.51
					c12.859-32.641,67.262-45.5,70.229-62.317c2.967-16.813,0.989-25.717,0.989-25.717c6.924-20.771,46.49-37.587,46.49-37.587
					c-1.978-24.728,27.695-18.792,27.695-18.792c15.827,7.913,8.902,19.782,8.902,19.782c-17.804,16.813-21.761,6.924-21.761,6.924
					c-29.674,13.848-42.532,29.673-42.532,29.673c-4.946,16.815-0.989,29.675-0.989,29.675
					c-7.914,19.783-53.414,49.457-53.414,49.457c-10.88,15.826,28.685,34.618,28.685,34.618
					c26.707,17.806,46.489,3.958,46.489,3.958c29.675-6.926,25.154-15.253,32.643-24.729c33.63-42.534,70.228-62.315,70.228-62.315
					c0.989-6.925,0-12.859,0-12.859c-19.782-12.859-21.761-25.716-21.761-25.716c0-23.741,102.02-74.503,102.02-74.503
					c9.753,2.294,9.753,14.166,9.753,14.166l-30.664,19.782c-42.533,26.705-53.414,38.574-53.414,38.574
					c0,14.837,15.827,16.817,15.827,16.817c30.664,0.987,58.359,27.695,58.359,27.695c11.869,14.837,30.663,18.792,30.663,18.792
					c14.837-1.978,72.207-38.575,72.207-38.575L309.131,846.029z"/>
			</g>
			<g>
				<path fill="#A1EEE2" d="M16.348,151.659c16.815-9.892,74.185,17.804,74.185,17.804l421.372,247.283
					c22.75,13.85-45.5,357.077-45.5,357.077c-2.969,19.783-10.881,19.783-10.881,19.783L16.348,151.659z"/>
				<path fill="#F6F6F7" d="M-33.732,443.246l-29.052,83.295c0,3.896,229.479,133.532,259.153,148.369
					c34.422,17.21,229.232,128.41,229.232,128.41c36.834,28.585,34.777-68.755,34.777-68.755L-33.732,443.246z"/>
				<g>
					<g>
						<path fill="#0FBD80" d="M28.464,151.302l458.227,277.877c12.254,7.428,18.783,21.544,16.518,35.697l-45.787,286.197
							c-0.92,5.735-7.289,8.782-12.334,5.904L-33.03,483.769c-5.984-3.422-9.199-10.218-8.032-17.014L11.59,159.008
							C12.925,151.204,21.699,147.198,28.464,151.302z"/>
						<path fill="#61E3CF" d="M95.261,228.009l361.715,209.272c18.793,10.869,28.963,32.186,25.59,53.63l-31.029,197.459
							c-3.344,21.248-26.865,32.632-45.601,22.059L-17.748,471.217c-7.429-4.194-11.395-12.611-9.911-21.009l37.795-213.89
							c1.83-10.367,11.355-17.566,21.83-16.509l55.262,5.599C90.058,225.696,92.798,226.584,95.261,228.009z"/>
					</g>
				</g>
			</g>
			<g>
				<path fill="#BBF9ED" d="M94.489,284.944L276.143,390.98c6.132,3.58,9.347,10.652,7.992,17.625l-16.459,85.283
					c-1.503,7.814-10.198,11.869-17.162,8.022L62.768,397.892c-5.242-2.897-7.943-8.901-6.657-14.747l19.853-90.089
					C77.783,284.777,87.159,280.67,94.489,284.944z"/>
				
					<ellipse transform="matrix(-0.7707 -0.6372 0.6372 -0.7707 -18.0581 718.108)" fill="#F6F6F7" cx="120.18" cy="362.303" rx="36.598" ry="34.62"/>
				<path fill="#F6F6F7" d="M222.126,449.753l-62.691-36.192c-5.658-3.264-7.605-10.563-4.342-16.212l0,0
					c3.265-5.658,10.564-7.607,16.212-4.342l62.691,36.192c5.658,3.264,7.606,10.563,4.342,16.212l0,0
					C235.074,451.069,227.784,453.018,222.126,449.753z"/>
				<path fill="#F6F6F7" d="M206.498,407.132l-28.27-16.32c-5.657-3.265-7.606-10.564-4.342-16.214l0,0
					c3.264-5.656,10.564-7.605,16.212-4.34l28.269,16.319c5.658,3.263,7.607,10.563,4.342,16.212l0,0
					C219.446,408.438,212.156,410.396,206.498,407.132z"/>
				<path fill="#FC807B" d="M98.445,370.258l33.631,20.771c7.913-14.837-4.946-15.826-5.935-23.738
					c-0.99-7.914,4.945-14.838,3.956-20.773c-0.989-5.935-5.935-10.88-5.935-10.88c-8.902-3.957-12.859,2.968-12.859,2.968
					c-2.968,9.891,0,10.88-0.99,14.836c-0.989,3.958-6.924,5.936-6.924,5.936C97.456,359.376,98.445,370.258,98.445,370.258z"/>
			</g>
			<g>
				<path fill="#BBF9ED" d="M73.064,420.109l83.028,49.813c8.151,4.886,12.365,14.361,10.545,23.689l-9.298,47.676
					c-1.702,8.743-11.534,13.186-19.229,8.684l-79.041-46.28c-9.09-5.322-14.066-15.599-12.612-26.034l6.697-48.022
					C54.459,420.237,64.934,415.233,73.064,420.109z"/>
				<path fill="#FC807B" d="M84.598,454.333c7.389,0,20.692,0.485,21.603,10.17c0.841,9.029-4.065,13.837-9.733,19.505
					c-6.923,6.924-22.75,7.912-22.75,7.912c-7.913-1.978-13.848-28.684-13.848-28.684c-2.967-26.707,10.881-19.783,10.881-19.783
					c7.914,4.946,9.892,10.88,9.892,10.88H84.598z"/>
				<path fill="#DEF9F5" d="M82.986,466.35c-0.643-0.395-1.247-0.987-1.781-1.907c-1.514-2.593-5.935-2.207-7.448,0.374
					c-2.423,4.115,2.957,10.406,5.717,13.196c3.828-0.99,7.537-2.443,11.019-4.322c0.535-0.287,1.079-0.604,1.415-1.109
					c0.692-1.019,0.247-2.481-0.664-3.323C88.445,466.677,85.379,467.844,82.986,466.35z"/>
			</g>
			<g>
				<circle fill="#FC807B" cx="29.7" cy="245.132" r="78.636"/>
				<path fill="#F6F6F7" d="M6.812,226.882l-10.02-5.243c-2.809-1.473-6.271-0.266-7.557,2.632l-3.363,7.557
					c-1.286,2.889-0.446,6.271,2.027,8.229l15.213,12.049c2.67,2.116,4.025,5.489,3.56,8.873l-2.542,18.446
					c-0.386,2.779,1.246,5.451,3.897,6.371l13.699,4.769c2.355,0.819,4.876-0.675,5.303-3.128l1.839-10.583
					c0.653-3.729,4.708-5.776,8.101-4.086l9.327,4.668c1.949,0.97,4.303,0.031,5.055-2.006l4.945-13.602
					c0.92-2.521-0.039-5.351-2.315-6.794l-14.312-9.11c-2.176-1.385-3.354-3.897-3.018-6.45l2.75-21.335
					c0.396-3.057-1.256-6.005-4.064-7.271l-6.628-2.977c-4.48-2.018-9.703,0.346-11.147,5.044l-3.343,10.861
					C13.281,226.913,9.71,228.396,6.812,226.882z"/>
			</g>
			<g>
				<path opacity="0.8" fill="#61E3CF" enable-background="new    " d="M444.642,530.497c-15.826,45.5,33.631,58.358,33.631,58.358
					c44.51-1.978,53.414,24.728,53.414,24.728c4.945-28.683,12.857-60.337,12.857-60.337
					C541.578,532.474,444.642,530.497,444.642,530.497z"/>
				<path fill="#F6F6F7" d="M406.064,530.497c18.794-26.707,13.85-49.457,13.85-49.457c12.859-19.784,79.13,24.729,79.13,24.729
					c13.85,10.881,0,52.423,0,52.423c-10.881,12.859-71.217-24.727-71.217-24.727C406.064,530.497,406.064,530.497,406.064,530.497z
					"/>
			</g>
			<g>
				<path fill="#0FBD80" d="M-165.653,673.919c0,0,5.935,29.675,21.762,14.837c0,0-3.433-6.884-0.693-24.648
					c-6.736-5.073-13.442-10.197-20.533-14.095C-166.523,657.243-166.87,665.207-165.653,673.919z"/>
				<path fill="#89E0CF" d="M-28.163,602.704c0,0-60.338-23.739-100.892-3.957c0,0-29.535,17.458-36.073,51.267
					c7.092,3.897,13.808,9.021,20.535,14.095c0.197-1.285,0.425-2.631,0.692-4.035c0,0-1.978-10.881,21.761-39.564
					c0,0,20.772-19.784,47.38-12.028c0,0,10.682,4.084,37.874,13.708c7.616-4.679,15.352-9.218,22.74-14.479
					C-18.253,606.125-22.901,604.454-28.163,602.704z"/>
				<path fill="#0FBD80" d="M-14.138,607.708c-7.378,5.262-15.124,9.801-22.74,14.479c6.033,2.138,12.858,4.531,20.574,7.222
					c0,0,24.729,10.88,32.641,0C16.348,629.41,23.578,622.169-14.138,607.708z"/>
				<path fill="#2BD9BF" d="M-20.429,575.017c-6.913-1.147-14.48-0.476-21.464,0.624c-12.156,1.907-26.696,4.45-36.677,12.254
					c-8.486,6.638-12.186,17.439-23.778,19.754c-3.174,0.633-8.961-1.643-12.255-1.96c-8.576-0.8-17.319-0.613-25.847,0.633
					c-10.237,1.494-20.237,4.601-29.535,9.131c-6.043,2.948-23.709,10.791-24.036,18.725c-0.08,1.938,0.613,3.818,1.424,5.589
					c5.994,13.135,18.438,22.096,32.246,25.56c14.797,3.719,30.465,1.729,45.252-2.058c7.162-1.83,14.708-4.422,19.12-10.357
					c5.42-7.3,4.541-17.625,2.523-26.271c-0.574-2.471-0.475-5.083,0.554-7.408c4.292-9.703,14.906,5.521,19.218,7.627
					c7.191,3.521,15.035,5.776,22.958,6.845c15.885,2.156,32.502-0.535,46.637-8.19C6.95,619.528,7.9,611.129,3.915,599.814
					c-2.305-6.527-4.797-13.294-9.822-18.06C-9.954,577.945-14.988,575.917-20.429,575.017z M-102.349,644.208
					c0,0.029-0.009,0.05-0.02,0.078c-0.574,0.92-12.799,19.525-50.426,10.841c0,0-21.761-4.945-24.729-20.771
					c-0.385-2.037,11.85-8.111,13.117-8.773c13.026-6.815,27.408-10.108,41.791-12.514
					C-106.859,610.418-101.874,632.584-102.349,644.208z M-16.293,618.528c0,0-9.892,8.904-46.469,2.969
					c-0.01,0-0.021,0-0.041-0.009c-0.425-0.199-10.91-5.016-12.849-8.894c-1.889-3.768-0.178-12.928-0.009-13.789
					c0.009-0.039,0.02-0.068,0.059-0.088c20.099-13.928,47.676-26.312,66.212-4.937c0.01,0.011,0.01,0.011,0.02,0.021
					C-8.975,594.079,2.183,602-16.293,618.528z"/>
			</g>
			<g>
				<path fill="#D6F8F3" d="M312.099,532.474c-47.479,9.893-49.458,43.522-49.458,43.522c4.946,67.26,118.695,79.13,118.695,79.13
					c53.415-8.902,46.491-33.63,46.491-33.63c-1.98-45.5-64.294-61.326-64.294-61.326L312.099,532.474z"/>
				<path fill="#67F9DD" d="M312.099,532.474v41.544c12.858,7.914,32.641-20.772,32.641-20.772
					c2.968,33.632,16.815,35.609,16.815,35.609c7.913-14.837,28.684-22.75,28.684-22.75
					C380.348,555.223,312.099,532.474,312.099,532.474z"/>
				<path fill="#F9E698" d="M312.099,468.181c-19.783,22.75-8.903,71.218-8.903,71.218c4.946,6.923,28.686,8.902,28.686,8.902
					c8.902,7.912,6.924,16.813,6.924,16.813c12.858,3.958,24.729-6.924,24.729-6.924c10.881-6.923,9.891-27.694,9.891-27.694
					l16.814-40.555L312.099,468.181z"/>
				<path fill="#00D1B2" d="M361.555,486.974c-29.674,2.968-62.315-8.901-62.315-8.901c-13.848-26.706,36.598-36.599,36.598-36.599
					c63.304-8.901,69.239,22.75,69.239,22.75c1.979,46.489-15.826,62.316-15.826,62.316c-17.805,22.749-24.729,8.901-24.729,8.901
					c-7.913-8.901,16.815-25.719,16.815-25.719c4.947-14.836-16.815-5.934-16.815-5.934
					C354.63,499.833,361.555,486.974,361.555,486.974z"/>
			</g>
		</g>
		<g>
			<path fill="#2EC590" d="M-378.316,460.268c45.5,9.892,71.218,43.521,71.218,43.521c6.923,52.424-40.554,117.707-40.554,117.707
				c-36.598-10.881-59.348-33.63-59.348-33.63l-5.935-66.271C-392.165,466.204-378.316,460.268-378.316,460.268z"/>
			<path fill="#CAE8E3" d="M-439.643,521.595c16.815,2.968,26.707,0,26.707,0c21.76,10.879,34.619,43.52,34.619,43.52
				l-28.685,22.752l-5.935-6.925l14.836,93.968c-1.979,20.771-65.282,2.968-65.282,2.968c4.946-58.359,0-76.164,0-76.164
				c-6.924-49.457,0-85.064,0-85.064l23.739-19.782V521.595z"/>
			<path fill="#61E3CF" d="M-256.653,316.844l24.837,25.994l-8.022,94.679c3.957,20.772-40.554,5.936-40.554,5.936l6.924-72.207
				v-41.543L-256.653,316.844z"/>
			<path fill="#2EC590" d="M-277.929,437.517c23.294,11.869,50.821,1.979,50.821,1.979l16.944,162.217h-23.294
				c0,0-7.409-89.022-15.885-97.924c-8.467-8.902-10.584,15.825-10.584,15.825l-2.117,68.252
				c-15.885,2.967-23.293-48.468-23.293-48.468L-277.929,437.517z"/>
			<g>
				<path fill="#CAE8E3" d="M-264.566,302.007c-40.555,23.738-42.533,76.162-42.533,76.162l7.913,28.685h5.935l-6.924,85.065
					c3.957,11.87,35.609,12.858,35.609,12.858l-9.367-143.7L-264.566,302.007z"/>
				<path fill="#CAE8E3" d="M-231.816,322.828c-22.859,44.463-12.967,98.864-12.967,98.864l4.945,94.957
					c31.652,6.924,45.5-31.652,45.5-31.652l-5.935-33.63l13.848-19.784C-195.327,341.572-231.816,322.828-231.816,322.828z"/>
			</g>
			<path fill="#2BD9BF" d="M-257.642,302.007l23.739,10.879c9.892,38.577-10.88,21.762-10.88,21.762V319.81l-22.75,18.795
				c-2.967,29.673-17.805,32.641-17.805,32.641c13.848-13.847,5.935-47.478,5.935-47.478
				C-267.533,309.918-257.642,302.007-257.642,302.007z"/>
			<g>
				<g>
					<path fill="#61E3CF" d="M-219.036,377.764c-1.286,2.236-2.572,4.472-3.857,6.697c-0.426,0.741-0.089,2.037,0.89,2.176
						c6.993,1.037,8.219,8.962,8.783,14.737c0.465,4.816,1.019,9.475,3.977,13.472c0.831,1.118,2.759,0.831,2.77-0.75
						c0.03-12.464-3.511-24.354-10.396-34.74c-1.048-1.581-3.62-0.098-2.562,1.494c6.608,9.98,10.01,21.275,9.99,33.246
						c0.92-0.248,1.841-0.496,2.77-0.752c-6.043-8.191-0.643-27.499-14.53-29.575c0.297,0.721,0.594,1.452,0.891,2.176
						c1.286-2.236,2.571-4.471,3.858-6.696C-215.524,377.595-218.087,376.103-219.036,377.764L-219.036,377.764z"/>
				</g>
			</g>
			<path fill="#2EC590" d="M-297.208,378.169l3.957,24.729c-16.815,7.911-61.327-24.729-61.327-24.729v-28.685L-297.208,378.169z"/>
			<path fill="#129B66" d="M-422.828,772.833c16.815,1.979,9.892-3.956,9.892-3.956l21.76,0.99
				c7.914,11.869-26.706,19.782-26.706,19.782c-16.815-3.958-10.881-16.816-10.881-16.816H-422.828z"/>
			<path fill="#129B66" d="M-448.426,749.628c15.708-7.458,8.784,10.347,8.784,10.347l-14.837,8.902
				c-20.771,2.968-8.901-10.882-8.901-10.882L-448.426,749.628z"/>
			<g>
				<path fill="#F9E48F" d="M-274.734,271.343c-8.724,24.838,6.538,43.463,6.538,43.463c9.812,3.729,9.812,7.447,9.812,7.447
					l18.546,7.449v-48.429L-274.734,271.343z"/>
				<path fill="#F9E48F" d="M-408.98,484.997c7.914,17.804-6.923,36.599-6.923,36.599c-10.88,7.912-23.739,0-23.739,0v-24.729
					L-408.98,484.997z"/>
				<path fill="#F9E48F" d="M-389.197,561.159c19.783,27.696,45.5,27.696,45.5,27.696c11.869-8.902,14.837,1.979,14.837,1.979
					c-2.968,15.825-14.837,11.87-14.837,11.87c-6.924-3.957-14.836,0-14.836,0c-23.74-2.968-39.566-21.762-39.566-21.762
					L-389.197,561.159z"/>
				<path fill="#F9E48F" d="M-428.762,694.692l5.935,78.142c13.848,3.957,8.902-3.956,8.902-3.956l0.99-77.153L-428.762,694.692z"/>
				<path fill="#F9E48F" d="M-444.588,695.681c-3.957,36.598-3.957,60.337-3.957,60.337c0,7.913-13.848,1.978-13.848,1.978
					c-5.936-39.564,8.902-72.205,8.902-72.205L-444.588,695.681z"/>
				<path fill="#F9E48F" d="M-185.436,437.517c6.924,13.85,6.924,29.675,6.924,29.675c-4.946,6.923-15.826-7.914-15.826-7.914
					c0-7.911,3.957-21.761,3.957-21.761H-185.436z"/>
				<path fill="#2BD9BF" d="M-262.588,283.212c17.805,0,21.761,18.795,21.761,18.795c16.815-14.838,4.946-30.664,4.946-30.664
					c-25.718-15.826-45.5,4.947-45.5,4.947C-278.414,298.049-262.588,283.212-262.588,283.212z"/>
			</g>
			<path fill="#0FBD80" d="M-405.211,483.661c-2.779-40.208-43.334-11.523-43.334-11.523c-5.212,17.479-24.728,31.652-24.728,31.652
				c-8.695,25.134,9.802,39.971,9.802,39.971c13.918,17.478,16.519-7.646,16.519-7.646c13.046-39.337,8.694-44.797,8.694-44.797
				C-433.906,503.334-405.211,483.661-405.211,483.661z"/>
			<path fill="#2EC590" d="M-463.322,678.115c0.564-0.209,1.237-0.108,1.85,0.011c20.96,3.836,42.819,2.739,63.295-3.166
				c0.425-0.129-1.82,12.047-2.266,13.164c-1.662,4.215-4.51,9.446-8.289,12.157c-3.342,2.403-8.635,3.739-12.651,2.434
				c-4.54-1.474-5.232-6.607-9.297-7.687c-1.969-0.523-4.065-0.099-6.034,0.426c-3.511,0.94-6.934,2.205-10.208,3.789
				c-1.998,0.969-4.025,2.065-6.25,2.146c-3.047,0.107-5.876-1.8-7.676-4.264c-3.482-4.748-4.896-11.256-3.739-16.994
				c0.139-0.701,0.366-1.452,0.959-1.849C-463.53,678.212-463.431,678.154-463.322,678.115z"/>
			<path fill="#129B66" d="M-277.425,584.9c13.848-3.958,21.761,0,21.761,0c3.957,12.856-20.771,25.716-20.771,25.716
				c-12.859,3.957-13.848-1.979-13.848-1.979L-277.425,584.9z"/>
			<path fill="#129B66" d="M-231.925,601.713c18.794,0,21.761,0,21.761,0c-8.902,14.837-11.444,17.755-11.444,17.755l-14.56,8.023
				C-245.773,625.454-231.925,601.713-231.925,601.713z"/>
		</g>
	</g>
</g>
</svg>
